<?xml version="1.0" standalone="no"?>
<!DOCTYPE svg PUBLIC "-//W3C//DTD SVG 20010904//EN"
 "http://www.w3.org/TR/2001/REC-SVG-20010904/DTD/svg10.dtd">
<svg version="1.0" xmlns="http://www.w3.org/2000/svg"
 width="980.000000pt" height="381.000000pt" viewBox="0 0 980.000000 381.000000"
 preserveAspectRatio="xMidYMid meet">

<g transform="translate(0.000000,381.000000) scale(0.100000,-0.100000)"
fill="#000000" stroke="none">
<path d="M693 2679 c3 -12 60 -247 127 -523 83 -341 131 -517 149 -551 41 -79
128 -111 239 -89 l31 6 90 367 c50 201 96 398 102 436 12 76 29 109 29 57 0
-84 141 -729 172 -783 36 -64 78 -84 175 -84 45 0 84 2 86 5 3 3 75 268 160
590 l154 585 -120 3 c-66 1 -121 1 -123 -1 -5 -5 -119 -550 -154 -737 -17 -90
-32 -165 -33 -167 -2 -1 -15 66 -30 150 -22 120 -126 626 -152 735 -5 21 -9
22 -134 22 l-129 0 -7 -32 c-4 -18 -29 -127 -56 -243 -53 -225 -110 -481 -130
-583 -6 -34 -13 -61 -14 -60 -2 2 -15 68 -29 148 -14 80 -53 283 -86 453 -33
169 -60 310 -60 312 0 3 -59 5 -131 5 -129 0 -131 0 -126 -21z"/>
<path d="M3090 2110 l0 -590 115 0 115 0 0 590 0 590 -115 0 -115 0 0 -590z"/>
<path d="M6472 2193 c3 -494 4 -509 24 -553 53 -111 156 -153 319 -130 l85 12
0 92 0 92 -64 -4 c-59 -4 -66 -2 -97 26 l-34 30 -3 221 -3 221 105 0 106 0 0
110 0 110 -105 0 -105 0 0 140 0 140 -115 0 -116 0 3 -507z"/>
<path d="M2384 2406 c-33 -8 -84 -24 -112 -36 l-50 -22 19 -66 c10 -37 21 -72
24 -79 3 -9 19 -6 57 12 64 29 175 48 226 39 78 -14 121 -51 129 -112 l5 -39
-89 -6 c-292 -19 -447 -146 -430 -353 12 -149 118 -239 282 -238 90 1 148 21
218 76 25 20 42 28 44 21 17 -51 85 -93 150 -93 59 0 85 10 78 29 -4 9 -10
158 -14 331 -7 297 -8 318 -30 366 -28 64 -91 126 -156 155 -41 19 -72 23
-170 26 -76 2 -142 -2 -181 -11z m306 -533 c0 -112 -37 -168 -128 -194 -90
-25 -162 27 -162 118 0 44 30 91 74 115 29 16 122 36 174 37 l42 1 0 -77z"/>
<path d="M3890 2411 c-48 -15 -87 -40 -123 -80 -20 -23 -39 -41 -42 -41 -3 0
-5 25 -5 55 l0 55 -110 0 -110 0 0 -440 0 -440 115 0 114 0 3 288 c3 258 5
291 22 325 29 58 79 92 137 92 58 0 96 -25 124 -81 18 -36 20 -62 23 -331 l3
-293 114 0 113 0 4 293 c2 224 6 298 17 317 54 99 156 127 231 64 53 -45 60
-93 60 -401 l0 -273 120 0 120 0 0 264 c0 317 -9 397 -53 486 -55 111 -137
155 -272 148 -89 -4 -153 -35 -219 -102 -27 -28 -51 -46 -53 -39 -13 38 -67
93 -114 117 -43 21 -66 26 -123 25 -39 0 -82 -4 -96 -8z"/>
<path d="M5144 2405 c-80 -17 -166 -55 -161 -69 3 -7 13 -41 23 -77 9 -35 18
-65 19 -66 1 -2 21 6 44 18 100 48 235 58 304 23 34 -18 67 -70 67 -105 0 -26
-1 -26 -88 -32 -198 -13 -335 -76 -399 -184 -20 -34 -27 -63 -31 -119 -6 -88
13 -147 64 -204 103 -113 328 -114 440 -1 l32 31 20 -34 c26 -44 60 -66 111
-73 53 -7 114 4 104 20 -3 6 -10 153 -13 327 -8 367 -11 382 -95 467 -42 41
-65 55 -120 72 -79 25 -223 27 -321 6z m306 -525 c0 -83 -16 -126 -59 -163
-68 -57 -166 -57 -210 0 -24 29 -28 96 -9 138 23 50 126 92 231 94 l47 1 0
-70z"/>
<path d="M6215 2401 c-50 -22 -99 -70 -128 -125 l-22 -41 -3 83 -3 82 -104 0
-105 0 0 -440 0 -440 120 0 120 0 0 251 c0 283 5 314 61 370 41 41 117 65 174
55 l35 -7 0 116 0 115 -52 0 c-30 0 -71 -9 -93 -19z"/>
<path d="M1015 1231 c-43 -19 -65 -53 -65 -99 0 -47 32 -83 105 -121 59 -30
71 -41 73 -64 2 -16 -2 -35 -9 -43 -17 -20 -68 -17 -108 7 -32 19 -34 19 -47
2 -7 -10 -13 -25 -11 -33 4 -26 68 -50 130 -50 54 0 62 3 93 34 28 28 34 41
34 79 0 54 -28 89 -98 119 -80 35 -111 75 -80 106 17 17 80 15 107 -5 23 -16
25 -15 43 7 25 31 19 42 -33 62 -57 22 -85 22 -134 -1z"/>
<path d="M4164 1227 c-2 -7 -3 -98 -2 -202 l3 -190 118 -3 117 -3 0 36 0 35
-80 0 -80 0 0 170 0 170 -35 0 c-20 0 -38 -6 -41 -13z"/>
<path d="M4450 1225 c-28 -34 12 -85 54 -69 22 8 31 50 16 69 -16 19 -54 19
-70 0z"/>
<path d="M5297 1233 c-4 -3 -7 -93 -7 -200 0 -170 2 -194 16 -200 10 -4 22 1
30 11 12 17 14 17 36 2 13 -9 42 -16 69 -16 75 0 119 54 119 144 0 86 -68 141
-157 129 l-43 -5 0 71 0 71 -28 0 c-16 0 -32 -3 -35 -7z m177 -215 c37 -52 9
-128 -46 -128 -49 0 -68 24 -68 86 0 57 4 62 62 63 27 1 41 -5 52 -21z"/>
<path d="M5937 1183 c-4 -3 -7 -23 -7 -44 0 -28 -5 -38 -20 -42 -12 -3 -20
-14 -20 -27 0 -13 8 -24 20 -27 17 -5 20 -14 20 -62 0 -73 16 -128 41 -141 11
-6 41 -10 67 -8 43 3 47 5 47 28 0 22 -5 25 -37 28 -44 4 -51 19 -46 98 3 49
3 49 41 52 34 3 37 6 37 33 0 27 -2 29 -40 29 l-40 0 0 45 c0 43 -1 45 -28 45
-16 0 -32 -3 -35 -7z"/>
<path d="M6170 1149 c0 -32 -4 -42 -20 -46 -14 -4 -20 -14 -20 -33 0 -19 6
-29 20 -33 18 -5 20 -14 20 -84 0 -104 17 -125 93 -121 48 3 52 5 52 28 0 22
-5 25 -37 28 -33 3 -38 7 -43 36 -4 17 -5 50 -3 71 3 38 5 40 41 43 33 3 37 6
37 32 0 26 -4 29 -37 32 -37 3 -38 4 -41 46 -3 39 -5 42 -33 42 -27 0 -29 -2
-29 -41z"/>
<path d="M1325 1102 c-24 -6 -31 -13 -33 -36 l-4 -29 46 7 c51 8 86 -5 86 -32
0 -14 -10 -17 -56 -17 -49 0 -59 -3 -81 -29 -50 -58 -10 -136 69 -136 22 0 49
5 60 11 14 8 23 8 31 0 6 -6 19 -11 29 -11 16 0 18 10 18 90 0 97 -15 151 -47
168 -27 15 -84 21 -118 14z m79 -148 c20 -8 21 -48 2 -63 -8 -7 -27 -11 -43
-9 -21 2 -29 9 -31 27 -6 37 32 60 72 45z"/>
<path d="M1893 1099 c-102 -30 -123 -186 -33 -247 29 -20 44 -23 93 -20 69 5
95 24 77 58 -8 15 -17 19 -28 14 -42 -18 -90 -16 -111 5 -12 12 -21 25 -21 31
0 5 42 11 93 12 92 3 92 3 95 30 9 78 -80 142 -165 117z m79 -66 c29 -26 21
-33 -37 -33 -41 0 -55 4 -55 15 0 33 62 46 92 18z"/>
<path d="M2375 1103 c-11 -3 -27 -11 -36 -19 -14 -13 -18 -12 -29 1 -7 8 -21
15 -32 15 -17 0 -18 -8 -16 -132 l3 -133 33 -3 32 -3 0 83 c0 98 14 128 61
128 39 0 49 -27 49 -131 l0 -80 33 3 32 3 1 87 c2 111 5 118 48 118 47 0 56
-19 56 -125 l0 -86 33 3 32 3 3 65 c7 145 -21 203 -99 203 -26 0 -56 -7 -72
-18 -25 -16 -29 -16 -45 -2 -20 18 -59 27 -87 20z"/>
<path d="M2824 1099 c-18 -5 -46 -25 -64 -46 -30 -34 -32 -40 -28 -96 4 -54 8
-63 41 -93 30 -28 45 -34 82 -34 86 0 145 55 145 135 0 93 -88 160 -176 134z
m96 -86 c39 -50 3 -123 -60 -123 -33 0 -70 40 -70 75 0 68 88 101 130 48z"/>
<path d="M3145 1090 c-34 -17 -40 -18 -48 -5 -4 8 -17 15 -28 15 -19 0 -19 -6
-17 -132 l3 -133 33 -3 32 -3 0 83 c0 97 14 128 59 128 16 0 33 -6 39 -13 6
-7 12 -53 14 -103 l3 -89 33 -3 32 -3 0 101 c0 123 -13 154 -68 169 -47 14
-41 14 -87 -9z"/>
<path d="M3445 1095 c-22 -8 -41 -15 -42 -15 -1 0 -11 -15 -22 -34 -41 -66
-22 -163 39 -200 55 -32 170 -13 170 28 0 23 -29 41 -42 28 -19 -19 -83 -15
-101 6 -33 36 -22 42 73 42 l90 0 0 35 c0 54 -24 90 -70 109 -48 19 -44 19
-95 1z m76 -55 c10 -6 19 -17 19 -25 0 -11 -13 -15 -55 -15 -59 0 -64 4 -38
32 18 20 45 23 74 8z"/>
<path d="M4945 1095 c-22 -8 -41 -15 -42 -15 -1 0 -11 -15 -22 -34 -41 -66
-22 -163 39 -200 38 -22 118 -21 153 3 l28 18 -20 24 c-16 19 -22 22 -32 12
-20 -20 -83 -16 -102 5 -33 36 -22 42 73 42 l90 0 0 35 c0 54 -24 90 -70 109
-48 19 -44 19 -95 1z m76 -55 c10 -6 19 -17 19 -25 0 -11 -13 -15 -55 -15 -59
0 -64 4 -38 32 18 20 45 23 74 8z"/>
<path d="M5696 1100 c-114 -34 -125 -215 -16 -260 38 -16 126 -8 147 12 20 21
0 63 -25 52 -42 -18 -90 -16 -111 5 -12 12 -21 25 -21 31 0 5 42 11 93 12 l92
3 -1 43 c-1 51 -31 87 -83 102 -41 11 -36 11 -75 0z m78 -66 c27 -26 18 -34
-39 -34 -30 0 -55 4 -55 9 0 18 31 41 55 41 13 0 31 -7 39 -16z"/>
<path d="M6443 1099 c-97 -28 -122 -176 -42 -243 36 -31 111 -36 159 -11 34
17 35 22 16 48 -12 15 -18 16 -35 8 -35 -19 -88 -13 -105 11 -9 12 -16 26 -16
30 0 5 41 8 90 8 104 0 113 7 89 73 -23 65 -87 96 -156 76z m82 -69 c10 -11
16 -23 13 -26 -3 -3 -32 -4 -64 -2 l-59 3 23 23 c27 27 63 28 87 2z"/>
<path d="M6748 1092 c-32 -17 -39 -17 -49 -6 -6 8 -18 14 -25 14 -11 0 -14
-27 -14 -136 l0 -135 33 3 32 3 3 89 c2 50 8 96 14 103 6 7 26 13 44 13 27 0
37 5 46 25 13 29 12 31 -22 40 -16 3 -39 -2 -62 -13z"/>
<path d="M1520 1092 c0 -22 122 -262 133 -262 9 0 108 190 135 261 2 5 -13 9
-33 9 -35 0 -37 -2 -70 -72 l-33 -73 -22 50 c-12 28 -26 60 -31 73 -7 17 -16
22 -44 22 -19 0 -35 -4 -35 -8z"/>
<path d="M3650 1092 c0 -6 21 -64 46 -131 l46 -122 -26 -64 c-14 -36 -26 -70
-26 -76 0 -6 14 -9 32 -7 33 3 34 5 110 188 42 102 77 193 77 203 1 13 -7 17
-32 17 -32 0 -33 -2 -62 -85 -16 -47 -32 -85 -36 -85 -3 0 -17 37 -30 83 l-24
82 -38 3 c-20 2 -37 -1 -37 -6z"/>
<path d="M4450 965 l0 -135 35 0 35 0 0 135 0 135 -35 0 -35 0 0 -135z"/>
<path d="M4572 1091 c28 -71 124 -261 133 -261 11 0 135 240 135 261 0 5 -15
9 -34 9 -31 0 -35 -4 -66 -72 l-33 -72 -33 72 c-32 70 -34 72 -69 72 -20 0
-35 -4 -33 -9z"/>
<path d="M3927 902 c-34 -37 -11 -76 40 -70 23 2 29 9 31 33 6 48 -40 71 -71
37z"/>
<path d="M6828 909 c-36 -21 -16 -79 27 -79 44 0 63 60 26 80 -24 12 -31 12
-53 -1z"/>
</g>
</svg>
